<svg xmlns="http://www.w3.org/2000/svg" viewBox="0 0 32 32" width="32" height="32" style="fill: rgba(241, 245, 249, 1);border-color: rgba(0,0,0,0);border-width: bpx;border-style: undefined" filter="none"><path d="M22.496 11.168c0.089-0.091 0.144-0.215 0.144-0.352s-0.055-0.261-0.144-0.352l0 0-1.056-1.088c-0.091-0.089-0.215-0.144-0.352-0.144s-0.261 0.055-0.352 0.144l0-0-4.384 4.48c-0.091 0.089-0.215 0.144-0.352 0.144s-0.261-0.055-0.352-0.144l0 0-4.384-4.48c-0.091-0.089-0.215-0.144-0.352-0.144s-0.261 0.055-0.352 0.144l0-0c-0.352 0.384-0.704 0.736-1.056 1.12-0.089 0.091-0.144 0.215-0.144 0.352s0.055 0.261 0.144 0.352l-0-0c1.44 1.44 2.88 2.944 4.384 4.448 0.089 0.091 0.144 0.215 0.144 0.352s-0.055 0.261-0.144 0.352l0-0c-1.472 1.504-2.944 2.976-4.384 4.48-0.089 0.091-0.144 0.215-0.144 0.352s0.055 0.261 0.144 0.352l-0-0 1.056 1.088c0.224 0.192 0.512 0.192 0.704 0l4.384-4.448c0.091-0.089 0.215-0.144 0.352-0.144s0.261 0.055 0.352 0.144l-0-0c1.472 1.472 2.912 2.944 4.384 4.448 0.091 0.089 0.215 0.144 0.352 0.144s0.261-0.055 0.352-0.144l-0 0c0.352-0.384 0.704-0.736 1.056-1.088 0.089-0.091 0.144-0.215 0.144-0.352s-0.055-0.261-0.144-0.352l0 0c-1.44-1.472-2.88-2.976-4.352-4.48-0.089-0.091-0.144-0.215-0.144-0.352s0.055-0.261 0.144-0.352l-0 0c1.44-1.504 2.912-2.976 4.352-4.48zM16 1.984c-7.744 0-13.984 6.272-13.984 14.016s6.24 14.016 13.984 14.016 14.016-6.272 14.016-14.016-6.272-14.016-14.016-14.016zM16 27.808c-6.496 0-11.808-5.312-11.808-11.808s5.312-11.808 11.808-11.808 11.808 5.28 11.808 11.808-5.28 11.808-11.808 11.808z"></path></svg>