<?xml version="1.0" encoding="UTF-8"?>
<svg width="375px" height="101px" viewBox="0 0 375 101" version="1.1" xmlns="http://www.w3.org/2000/svg" xmlns:xlink="http://www.w3.org/1999/xlink">
    <title>切图</title>
    <g id="页面-1" stroke="none" stroke-width="1" fill="none" fill-rule="evenodd">
        <g id="切图" transform="translate(-151.000000, 0.000000)" fill="#FFFFFF">
            <path d="M198.633851,8 C233.186693,8 252.874555,28.1274932 252.874555,44.6077229 C253.576514,49.6836966 251.292852,54.9774257 247.017979,60.2355899 C271.747868,55.4109054 301.71047,52.8327338 338,52.8327338 C377.35199,52.8327338 409.132255,56.2626933 434.79428,62.4725969 L434.778361,62.4765297 C432.83539,60.1750495 431.624811,58.2594888 431.322849,56.8940297 C428.645698,44.7880594 431.277076,30.3092467 454.770777,16.4220968 C478.264477,2.53494692 523.097607,12.9832315 538.753506,43.7096624 C554.409404,74.4360934 545.448222,101.054915 530.80666,108.515163 C527.304799,110.956347 522.58095,111.704997 517.085442,111.180668 C544.848615,149.434881 542.021988,201.728887 541.995847,253.124401 C541.945749,351.620289 492.98055,393 335.998646,393 C179.016743,393 130.039911,365.242452 130.039911,254.025244 C130.039911,195.417644 128.256764,142.708758 157.941114,105.956633 C145.525001,105.328365 137.713333,96.8522486 136.070397,70.6219849 C134.359417,43.3053768 164.081009,8 198.633851,8 Z" id="形状结合备份"></path>
        </g>
    </g>
</svg>