<?xml version="1.0" encoding="UTF-8"?>
<svg width="20px" height="20px" viewBox="0 0 20 20" version="1.1" xmlns="http://www.w3.org/2000/svg" xmlns:xlink="http://www.w3.org/1999/xlink">
    <title>切图备份</title>
    <g id="页面-1" stroke="none" stroke-width="1" fill="none" fill-rule="evenodd" stroke-linejoin="round">
        <g id="切图" transform="translate(-976.000000, -394.000000)" stroke="#333333" stroke-width="1.25">
            <g id="列表_list-middle备份" transform="translate(978.000000, 397.000000)">
                <path d="M1.66666667,8.33333333 C2.587125,8.33333333 3.33333333,7.587125 3.33333333,6.66666667 C3.33333333,5.74620833 2.587125,5 1.66666667,5 C0.746191667,5 0,5.74620833 0,6.66666667 C0,7.587125 0.746191667,8.33333333 1.66666667,8.33333333 Z" id="路径"></path>
                <path d="M1.66666667,1.66666667 C2.12690417,1.66666667 2.5,1.29358333 2.5,0.833333333 C2.5,0.373095833 2.12690417,0 1.66666667,0 C1.20642917,0 0.833333333,0.373095833 0.833333333,0.833333333 C0.833333333,1.29358333 1.20642917,1.66666667 1.66666667,1.66666667 Z" id="路径"></path>
                <path d="M1.66666667,13.3333333 C2.12690417,13.3333333 2.5,12.96025 2.5,12.5 C2.5,12.03975 2.12690417,11.6666667 1.66666667,11.6666667 C1.20642917,11.6666667 0.833333333,12.03975 0.833333333,12.5 C0.833333333,12.96025 1.20642917,13.3333333 1.66666667,13.3333333 Z" id="路径"></path>
                <line x1="6.66666667" y1="6.66666667" x2="16.6666667" y2="6.66666667" id="路径" stroke-linecap="round"></line>
                <line x1="6.66666667" y1="12.5" x2="16.6666667" y2="12.5" id="路径" stroke-linecap="round"></line>
                <line x1="6.66666667" y1="0.833333333" x2="16.6666667" y2="0.833333333" id="路径" stroke-linecap="round"></line>
            </g>
        </g>
    </g>
</svg>