<?xml version="1.0" encoding="UTF-8"?>
<svg width="16px" height="16px" viewBox="0 0 16 16" version="1.1" xmlns="http://www.w3.org/2000/svg" xmlns:xlink="http://www.w3.org/1999/xlink">
    <title>切图</title>
    <g id="页面-1" stroke="none" stroke-width="1" fill="none" fill-rule="evenodd">
        <g id="切图" transform="translate(-100.000000, -10.000000)">
            <g id="编组-9备份" transform="translate(100.000000, 10.000000)">
                <rect id="矩形" stroke="#979797" fill="#D8D8D8" opacity="0" x="0.5" y="0.5" width="15" height="15"></rect>
                <g id="fuli" fill-rule="nonzero">
                    <path d="M15.0340349,3.03267734 L9.65580277,3.03267734 L11.3529765,1.3736043 C11.5041374,1.22607435 11.5908132,1.0240298 11.5938817,0.812045585 C11.5969501,0.600061373 11.5161591,0.395557508 11.3693325,0.243651512 C11.2228634,0.091395894 11.0222716,0.00409231324 10.8118116,0.00100163433 C10.6013517,-0.00208904457 10.3983182,0.0792871578 10.2475045,0.227177072 L7.8960914,2.52584603 L5.77751052,0.252373275 C5.47733013,-0.0693628529 4.97510523,-0.0858372932 4.6556825,0.21651714 C4.33625977,0.518871573 4.31990379,1.0247338 4.62008419,1.34646993 L6.19122069,3.03267734 L0.965965123,3.03267734 C0.431990379,3.03267734 0,3.46876547 0,4.0056384 L0,6.28008024 C0,6.81792226 0.432952495,7.2530413 0.965965123,7.2530413 L1.7039086,7.2530413 L1.7039086,13.769167 C1.7039086,15.0008737 2.69488876,16 3.91870114,16 L12.0812989,16 C13.3041491,16 14.2960914,15.0018427 14.2960914,13.769167 L14.2960914,7.2530413 L15.0340349,7.2530413 C15.5680096,7.2530413 16,6.81695318 16,6.28008024 L16,4.0056384 C16,3.46779638 15.5680096,3.03267734 15.0340349,3.03267734 Z M8.79374624,12.3698086 C8.79374624,12.8117113 8.4387252,13.1693035 8,13.1693035 C7.5612748,13.1693035 7.20625376,12.8117113 7.20625376,12.3698086 L7.20625376,9.70191839 C7.20625376,9.26001576 7.5612748,8.9024235 8,8.9024235 C8.4387252,8.9024235 8.79374624,9.26001576 8.79374624,9.70191839 L8.79374624,12.3698086 L8.79374624,12.3698086 Z" id="形状" fill="#FF3369"></path>
                    <path d="M15.0003608,3.03267734 L9.65580277,3.03267734 L11.3529765,1.3736043 C11.5041374,1.22607435 11.5908132,1.0240298 11.5938817,0.812045585 C11.5969501,0.600061373 11.5161591,0.395557508 11.3693325,0.243651512 C11.0643416,-0.0732391918 10.5611545,-0.0809918696 10.2475045,0.227177072 L7.8960914,2.52584603 L5.77751052,0.252373275 C5.47733013,-0.0693628529 4.97510523,-0.0858372932 4.6556825,0.21651714 C4.33625977,0.518871573 4.31990379,1.0247338 4.62008419,1.34646993 L6.19122069,3.03267734 L0.965965123,3.03267734 C0.431990379,3.03267734 0,3.46876547 0,4.0056384 L0,6.28008024 C0,6.81792226 0.432952495,7.2530413 0.965965123,7.2530413 L1.7039086,7.2530413 L1.7039086,13.769167 C1.7039086,15.0008737 2.69488876,16 3.91870114,16 L5.67841251,16 C9.6519543,15.1297619 12.8856284,12.2661166 14.2960914,8.50025334 L14.2960914,7.2530413 L14.6895971,7.2530413 C14.938072,6.275234 15.0634895,5.2698362 15.0629005,4.26050768 C15.0619363,3.84573942 15.0417318,3.43581658 15.0003608,3.03267734 Z M8.79374624,12.3698086 C8.79374624,12.8117113 8.4387252,13.1693035 8,13.1693035 C7.5612748,13.1693035 7.20625376,12.8117113 7.20625376,12.3698086 L7.20625376,9.70191839 C7.20625376,9.26001576 7.5612748,8.9024235 8,8.9024235 C8.4387252,8.9024235 8.79374624,9.26001576 8.79374624,9.70191839 L8.79374624,12.3698086 L8.79374624,12.3698086 Z" id="形状" fill="#FF4D7C"></path>
                    <path d="M9.65580277,3.03267734 L11.3529765,1.3736043 C11.5041374,1.22607435 11.5908132,1.0240298 11.593966,0.812045585 C11.5969501,0.600061373 11.5161591,0.395557508 11.3693325,0.243651512 C11.0643416,-0.0732391918 10.5611545,-0.0809918696 10.2475045,0.227177072 L7.8960914,2.52584603 L5.77751052,0.252373275 C5.47733013,-0.0693628529 4.97510523,-0.0858372932 4.6556825,0.21651714 C4.33625977,0.518871573 4.31990379,1.0247338 4.62008419,1.34646993 L6.19122069,3.03267734 L0.965965123,3.03267734 C0.431990379,3.03267734 0,3.46876547 0,4.0056384 L0,6.28008024 C0,6.81792226 0.432952495,7.2530413 0.965965123,7.2530413 L1.7039086,7.2530413 L1.7039086,11.8678227 C3.78111846,11.5451175 5.67937462,10.6797249 7.25628382,9.42476016 C7.35249549,9.16407637 7.57955502,8.96832126 7.85664462,8.91695977 C9.55862898,7.37030055 10.8161155,5.33619172 11.4126278,3.03364643 L9.65580277,3.03364643 L9.65580277,3.03267734 Z" id="路径" fill="#FF5F89"></path>
                    <path d="M7.18797354,1.76511453 L5.77751052,0.252373275 C5.47733013,-0.0693628529 4.97510523,-0.0858372932 4.6556825,0.21651714 C4.33625977,0.518871573 4.31990379,1.0247338 4.62008419,1.34646993 L6.19122069,3.03267734 L0.965965123,3.03267734 C0.431990379,3.03267734 0,3.46876547 0,4.0056384 L0,6.28008024 C0,6.67352864 0.232832231,7.01173921 0.566686711,7.16485459 C3.37702946,6.24228594 5.72748046,4.2973329 7.18797354,1.76511453 L7.18797354,1.76511453 Z" id="路径" fill="#FF7196"></path>
                </g>
            </g>
        </g>
    </g>
</svg>