<?xml version="1.0" encoding="UTF-8"?>
<svg width="38px" height="38px" viewBox="0 0 38 38" version="1.1" xmlns="http://www.w3.org/2000/svg" xmlns:xlink="http://www.w3.org/1999/xlink">
    <title>切图</title>
    <g id="页面-1" stroke="none" stroke-width="1" fill="none" fill-rule="evenodd">
        <g id="切图" transform="translate(-48.000000, 0.000000)">
            <circle id="椭圆形" fill="#C776E8" opacity="0.435478743" cx="75.4509804" cy="27.9411765" r="10.0588235"></circle>
            <g id="编组-29" transform="translate(48.000000, -0.000000)">
                <rect id="矩形" stroke="#979797" fill="#D8D8D8" opacity="0" x="0.5" y="0.5" width="34" height="34"></rect>
                <g id="lishixiao" fill="#3D3D3D" fill-rule="nonzero">
                    <path d="M17.5,32.0833333 C25.554375,32.0833333 32.0833333,25.554375 32.0833333,17.5 C32.0833333,9.445625 25.554375,2.91666666 17.5,2.91666666 C9.445625,2.91666666 2.91666666,9.445625 2.91666666,17.5 C2.91666666,25.554375 9.445625,32.0833333 17.5,32.0833333 Z M17.5,35 C7.835625,35 0,27.164375 0,17.5 C0,7.835625 7.835625,0 17.5,0 C27.164375,0 35,7.835625 35,17.5 C35,27.164375 27.164375,35 17.5,35 Z M18.9583333,18.3589583 L18.9583333,10.2039583 C18.9583333,9.410625 18.305,8.75 17.5,8.75 C16.6891667,8.75 16.0416363,9.40041666 16.0416363,10.2039583 L16.0416363,18.9627083 C16.0391805,19.3449556 16.1893066,19.7123971 16.45875,19.9835417 L20.6033333,24.128125 C20.8764219,24.3995537 21.2463619,24.5510521 21.6313908,24.5491545 C22.0164197,24.547221 22.384834,24.3920492 22.6552083,24.1179167 C23.2205824,23.5524289 23.2251362,22.6371269 22.6654167,22.0660417 L18.9583333,18.3589583 Z" id="形状"></path>
                </g>
            </g>
        </g>
    </g>
</svg>