<?xml version="1.0" encoding="UTF-8"?>
<svg width="21px" height="21px" viewBox="0 0 21 21" version="1.1" xmlns="http://www.w3.org/2000/svg" xmlns:xlink="http://www.w3.org/1999/xlink">
    <title>切图</title>
    <g id="页面-1" stroke="none" stroke-width="1" fill="none" fill-rule="evenodd">
        <g id="切图" transform="translate(-1052.000000, -442.000000)">
            <g id="编组-7备份-8" transform="translate(1051.566667, 442.000000)">
                <rect id="矩形" stroke="#D2B8FC" fill="#D2B8FC" opacity="0" x="0.5" y="0.5" width="20" height="20"></rect>
                <g id="锁定_lock-one" transform="translate(5.250000, 2.625000)">
                    <path d="M5.90625,4.57585227 C9.1681818,4.57585227 11.8125,7.37108358 11.8125,10.8191761 C11.8125,14.2672687 9.1681818,17.0625 5.90625,17.0625 C2.6443182,17.0625 0,14.2672687 0,10.8191761 C0,7.37108358 2.6443182,4.57585227 5.90625,4.57585227 Z M5.90625,8.14346591 C5.44025974,8.14346591 5.0625,8.54278467 5.0625,9.03536932 L5.0625,9.03536932 L5.0625,12.602983 L5.06817652,12.7069977 C5.11691583,13.1505758 5.47354476,13.4948864 5.90625,13.4948864 C6.37224026,13.4948864 6.75,13.0955676 6.75,12.602983 L6.75,12.602983 L6.75,9.03536932 L6.74432348,8.93135454 C6.69558417,8.48777647 6.33895524,8.14346591 5.90625,8.14346591 Z" id="形状结合" fill="#D2B8FC"></path>
                    <path d="M8.859375,6.24332386 L8.859375,3.12166193 C8.859375,1.3976171 7.53721875,0 5.90625,0 L5.90625,0 C4.27528125,0 2.953125,1.3976171 2.953125,3.12166193 L2.953125,6.24332386" id="路径" stroke="#D2B8FC" stroke-width="1.5" stroke-linejoin="round"></path>
                </g>
            </g>
        </g>
    </g>
</svg>