<?xml version="1.0" encoding="UTF-8"?>
<svg width="38px" height="38px" viewBox="0 0 38 38" version="1.1" xmlns="http://www.w3.org/2000/svg" xmlns:xlink="http://www.w3.org/1999/xlink">
    <title>切图</title>
    <g id="页面-1" stroke="none" stroke-width="1" fill="none" fill-rule="evenodd">
        <g id="编组-8">
            <circle id="椭圆形备份" fill="#C776E8" opacity="0.435478743" cx="28" cy="28" r="10"></circle>
            <g id="wode-2" fill="#3D3D3D" fill-rule="nonzero">
                <path d="M21.6727273,18.4518829 C24.2909091,16.6945607 26.0363636,13.6192469 26.0363636,10.1046025 C26.0363636,4.53974897 21.5272727,0 16,0 C10.4727273,0 5.96363636,4.53974897 5.96363636,10.1046025 C5.96363636,13.6192469 7.7090909,16.6945607 10.3272727,18.4518829 C4.21818181,20.7949791 0,26.6527197 0,33.5355649 C0,34.414226 0.581818194,35 1.45454543,35 C2.32727267,35 2.9090909,34.4142259 2.9090909,33.5355649 C2.9090909,26.3598326 8.87272726,20.3556486 16,20.3556486 C23.1272727,20.3556486 29.0909091,26.2133892 29.0909091,33.5355649 C29.0909091,34.414226 29.6727273,35 30.5454546,35 C31.4181818,35 32,34.2677824 32,33.5355649 C32,26.6527197 27.6363636,20.7949791 21.6727273,18.4518829 L21.6727273,18.4518829 Z M8.87272726,10.251046 C8.87272726,6.29707114 12.0727273,3.07531381 16,3.07531381 C19.9272727,3.07531381 23.1272727,6.29707114 23.1272727,10.251046 C23.1272727,14.2050209 19.9272727,17.4267782 16,17.4267782 C12.0727273,17.4267782 8.87272726,14.2050209 8.87272726,10.251046 Z" id="形状"></path>
            </g>
        </g>
    </g>
</svg>