<?xml version="1.0" encoding="UTF-8"?>
<svg width="22px" height="22px" viewBox="0 0 22 22" version="1.1" xmlns="http://www.w3.org/2000/svg" xmlns:xlink="http://www.w3.org/1999/xlink">
    <title>切图</title>
    <g id="页面-1" stroke="none" stroke-width="1" fill="none" fill-rule="evenodd">
        <g id="切图" transform="translate(-22.000000, -436.000000)">
            <g id="编组-2" transform="translate(22.000000, 436.000000)">
                <circle id="椭圆形备份-5" fill="#DBC4FF" cx="15.5" cy="14.5" r="6.5"></circle>
                <g id="编组-5备份-2">
                    <g id="矩形-2" fill="#D8D8D8" opacity="0" stroke="#979797">
                        <rect id="矩形" x="0.5" y="0.5" width="20" height="20"></rect>
                    </g>
                    <g id="消费_consume" transform="translate(2.000000, 2.000000)" stroke="#333333" stroke-linejoin="round" stroke-width="1.25">
                        <path d="M0,3.7260274 C0,3.24181918 0.4029435,2.84931507 0.9,2.84931507 L17.1,2.84931507 C17.59707,2.84931507 18,3.24181918 18,3.7260274 L18,15.1232877 C18,15.6074959 17.59707,16 17.1,16 L0.9,16 C0.4029435,16 0,15.6074959 0,15.1232877 L0,3.7260274 Z" id="路径"></path>
                        <polyline id="路径" stroke-linecap="round" points="6.75 5.91780822 9 8.10958904 11.25 5.91780822"></polyline>
                        <line x1="6.3" y1="8.54794521" x2="11.7" y2="8.54794521" id="路径" stroke-linecap="round"></line>
                        <line x1="6.3" y1="11.1780822" x2="11.7" y2="11.1780822" id="路径" stroke-linecap="round"></line>
                        <line x1="9" y1="8.54794521" x2="9" y2="12.9315068" id="路径" stroke-linecap="round"></line>
                        <line x1="1.8" y1="0.219178082" x2="16.2" y2="0.219178082" id="路径" stroke-linecap="round"></line>
                    </g>
                </g>
            </g>
        </g>
    </g>
</svg>